<svg width="100" height="100" viewBox="0 0 100 100" fill="none" xmlns="http://www.w3.org/2000/svg">
<path fill-rule="evenodd" clip-rule="evenodd" d="M23.263 56.3921C20.9243 58.9647 20.7687 60.5232 20.9243 63.6422V79.3874C20.9243 87.6497 25.2905 92.8728 34.5659 90.4563C41.3475 88.819 46.2584 88.3516 48.0508 91.6257C48.5447 92.3229 49.1564 92.7597 49.8147 92.8728H50.5063C51.423 92.7167 52.3776 91.9375 53.1962 90.378C55.6122 87.494 62.7062 90.7671 68.3968 90.9243C73.6184 91.4695 78.6859 89.5209 78.1402 78.1397L78.0624 59.6661C77.9851 57.2496 74.5543 54.0539 74.3987 56.7812V81.4916C74.0863 86.0907 73.9312 89.5209 60.5231 86.169C56.5481 84.9219 52.3386 86.3252 51.2476 87.6497C50.1561 88.9752 49.532 87.962 48.8306 87.4157C44.8551 84.3761 40.5678 86.0134 39.3206 86.4035C33.9423 87.4157 25.913 90.9248 25.1338 80.7913L25.2116 57.2501C25.3678 54.7548 23.8088 55.8458 23.263 56.3921V56.3921Z" fill="black"/>
<path fill-rule="evenodd" clip-rule="evenodd" d="M49.298 83.7525L46.0245 83.3624C50.3117 80.6346 50.0778 76.8148 36.9041 82.8955C29.889 86.3252 23.8088 81.1799 27.3942 76.1917L33.6306 76.3478C35.5013 76.27 35.5013 77.2832 35.423 78.7644C35.8909 80.9459 39.9442 81.4922 46.8815 77.7501C50.4674 76.2695 52.6505 77.2832 54.0533 79.3874C64.2651 75.1002 75.1784 76.0355 71.5925 83.2846C70.1892 84.2978 66.0576 85.0002 64.6553 83.4418L64.5769 81.8045C64.8882 79.0751 60.0557 77.828 49.298 83.7525V83.7525ZM27.5498 40.2567L71.6693 40.3345C74.7094 40.1005 75.0996 40.7241 74.9439 47.3496C74.9439 49.5321 78.2175 45.9468 78.9967 44.6213C80.8675 42.2831 80.3995 37.1388 79.3863 36.2023C75.8788 34.1754 76.8142 31.1358 71.6693 34.5656C71.4359 35.5009 54.2867 37.2939 53.5853 34.5656C52.4938 32.2269 48.2848 32.0712 46.8037 34.9552C43.2961 36.7481 29.5772 36.2802 28.4857 34.9552C25.913 33.3184 25.6018 34.0193 22.9512 36.4358C20.3007 38.6184 20.3007 44.075 23.5748 46.3353C24.6659 48.2839 25.5234 49.2193 25.6017 45.7118V42.282C25.6017 39.8666 26.6928 40.2567 27.5498 40.2567V40.2567ZM40.8796 21.7042H59.042C61.4585 21.7042 62.3939 19.6779 59.042 19.6779L53.1957 19.5217C51.1688 19.2877 50.857 19.2877 51.4028 17.7293C52.6499 15.4684 47.8952 14.767 48.675 17.7293C49.0646 19.1321 48.675 19.5217 47.4278 19.6779H40.4117C38.2291 19.9113 38.1513 21.7042 40.8796 21.7042Z" fill="black"/>
<path fill-rule="evenodd" clip-rule="evenodd" d="M19.3654 57.3273C26.0692 56.0018 23.4187 49.1424 18.5862 47.7396C15.2343 45.8683 16.1697 41.0358 16.3253 40.5683C17.0272 39.6324 15.3899 39.0872 12.8956 40.1004C9.77766 39.6324 11.9602 30.9795 17.6508 33.3188C18.7424 31.448 21.3923 29.1093 22.1716 29.3433C24.3546 29.5773 19.3654 25.7574 19.3654 25.7574C17.573 24.6664 29.3428 16.5598 30.0447 25.7574C30.4338 30.2787 34.1753 34.4098 37.3721 34.0202C38.5415 33.8645 37.1382 32.3834 36.2806 31.9933C33.3966 29.7329 35.2674 20.4569 33.4745 18.5862C32.8509 14.8447 21.548 10.7136 16.1702 24.5881C10.23 25.4316 7.40005 28.7425 6.81641 32.262V35.1127C7.24804 37.7612 8.85785 40.1761 11.2593 41.3475C8.60883 48.1292 13.4419 50.7797 15.5461 51.0126C18.4306 52.1046 19.6777 56.0801 18.9763 57.4051L19.3654 57.3273V57.3273ZM81.0242 57.2495C74.3204 56.0801 76.8926 49.2202 81.6473 47.6612C84.9219 45.791 83.9077 40.9579 83.752 40.49C83.0506 39.5546 84.6096 39.0094 87.1817 40.0226C90.2213 39.3985 87.9615 30.7461 82.2709 33.3188C81.1793 31.448 78.4521 29.1093 77.6723 29.4211C75.4898 29.7329 80.4001 25.7574 80.4001 25.7574C82.1931 24.6664 70.1888 16.7933 69.7213 25.9914C69.4095 30.5126 65.7458 34.7216 62.5501 34.4098C61.3807 34.2541 62.7835 32.773 63.5633 32.3834C66.4478 30.0447 64.4203 20.7687 66.1354 18.8202C66.4478 14.5329 79.3869 11.0248 83.6742 24.822C89.7964 25.5681 92.6571 28.8821 93.1847 32.3969V34.8533C92.8013 37.4763 91.2153 39.9012 88.8196 41.1136C91.6252 47.8952 86.871 50.6235 84.7662 50.9358C81.8818 52.1052 80.7129 56.0801 81.4143 57.4056L81.0242 57.2495V57.2495ZM41.6594 30.9801C34.7216 28.8759 40.6457 18.8202 46.6481 24.199C50.1557 28.5635 48.2849 33.7084 42.8288 34.6438C41.8934 34.5659 42.049 34.2541 42.4386 33.3188C43.2184 32.0716 41.6594 30.9801 41.6594 30.9801V30.9801ZM58.6524 31.0584C65.5897 29.1871 60.0557 19.0536 53.8972 24.1206C50.234 28.3301 51.9486 33.4744 57.2491 34.6438C58.1845 34.5659 58.1066 34.2541 57.717 33.3188C56.9378 32.0716 58.6524 31.0584 58.6524 31.0584V31.0584ZM55.2222 17.339C53.6627 11.6484 46.8032 11.9607 46.0245 17.339C40.1783 15.2343 37.2938 17.4952 36.6702 17.4952C34.8778 17.2612 31.9933 10.1678 36.125 11.415C37.6056 11.6489 40.4901 11.2588 43.9981 13.2857C45.0897 12.5843 41.8151 8.68665 44.6995 8.14088C45.8969 7.76943 47.7277 7.22366 49.9855 7.12769H51.3473C53.0225 7.19824 54.8834 7.54375 56.8595 8.37485C57.951 10.0116 55.1449 14.1433 57.5614 13.1296C60.4459 11.1026 67.8511 9.46587 66.3699 13.1296L65.2784 16.1697C64.6548 18.3522 58.8864 15.0781 55.2222 17.339V17.339Z" fill="black"/>
<path fill-rule="evenodd" clip-rule="evenodd" d="M45.0892 45.4787C45.0892 43.8419 46.4926 42.5947 48.4411 42.5947C49.61 42.5947 50.467 43.2961 50.467 43.9981C50.467 44.3877 50.2341 44.6995 49.8434 44.6995C49.61 44.6995 49.376 44.4655 49.376 44.2315C49.376 44.1537 49.4538 44.0759 49.4538 43.9981C49.6095 44.1537 49.6878 44.1537 49.8429 44.1537C49.9991 44.1537 50.1547 43.9981 50.1547 43.8419C50.1547 43.4523 49.3755 42.8287 48.4401 42.8287C46.8806 42.8287 45.5551 44.2315 45.5551 45.7905C45.5551 46.3363 45.7113 46.8042 46.1009 47.1938C46.7245 46.882 47.1924 46.8042 47.582 46.8042C48.2834 46.8042 48.6736 47.116 48.6736 47.4278C48.6736 47.8952 48.2834 48.1292 47.6598 48.1292C47.1146 48.1292 46.491 47.8952 46.0231 47.5056C44.8537 48.1292 44.2301 49.2202 44.2301 50.4674C44.2301 52.4938 45.9452 53.9755 48.4396 53.9755C51.1674 53.9755 52.9608 52.416 52.9608 50.4674C52.9608 49.2202 52.1033 48.441 50.9339 48.441C49.9207 48.441 49.2188 49.0646 49.2188 49.6882C49.2188 50.0773 49.6089 50.3896 49.9213 50.3896C50.233 50.3896 50.3887 50.2345 50.3887 50.0773C50.3887 49.9221 50.233 49.8438 50.1547 49.8438H49.9991V49.766C49.9991 49.6104 50.233 49.4537 50.3887 49.4537C50.7005 49.4537 50.8561 49.6877 50.8561 49.9221C50.8561 50.3891 50.466 50.7014 49.9991 50.7014C49.3755 50.7014 48.9075 50.1561 48.9075 49.298C48.9075 47.7391 50.1547 47.1155 52.4934 46.8815C54.5982 46.5697 55.6892 46.1018 55.6892 44.8546C55.6892 43.9975 55.0656 43.3734 54.1302 43.3734C53.2732 43.3734 52.7269 43.9197 52.7269 44.3088C52.7269 44.5428 52.883 44.699 53.0397 44.699C53.1953 44.699 53.2732 44.6211 53.3515 44.465C53.4293 44.5428 53.4293 44.6206 53.4293 44.699C53.4293 44.9329 53.1953 45.0886 52.9619 45.0886C52.6496 45.0886 52.4156 44.9329 52.4156 44.465C52.4156 43.7636 53.1175 43.14 54.1307 43.14C55.2223 43.14 55.9237 43.8419 55.9237 44.8546C55.9237 45.4782 55.6897 46.0239 55.0661 46.5697C54.1307 47.2716 52.9619 47.4273 51.4802 47.5834C50.0774 47.7391 49.376 47.973 49.142 49.0641C49.5316 48.4405 50.1552 48.207 50.935 48.207C52.1821 48.207 53.2737 49.1424 53.2737 50.4674C53.2737 52.4938 51.2473 54.2094 48.4411 54.2094C45.401 54.2094 43.5303 52.7283 43.5303 50.7014C43.5303 49.3759 44.3095 48.207 45.7906 47.2722C45.3227 46.7259 45.0892 46.1806 45.0892 45.4787V45.4787ZM47.7392 47.8952C48.2072 47.8952 48.3633 47.6612 48.3633 47.4278C48.3633 47.2722 48.1294 47.0377 47.5836 47.0377C47.194 47.0377 46.8038 47.116 46.2586 47.3495C46.726 47.6612 47.194 47.8952 47.7392 47.8952V47.8952Z" fill="black" stroke="black" stroke-width="5.84936" stroke-miterlimit="2.613"/>
<path fill-rule="evenodd" clip-rule="evenodd" d="M45.0892 45.4787C45.0892 43.8419 46.4926 42.5947 48.4411 42.5947C49.61 42.5947 50.467 43.2961 50.467 43.9981C50.467 44.3877 50.2341 44.6995 49.8434 44.6995C49.61 44.6995 49.376 44.4655 49.376 44.2315C49.376 44.2315 49.4538 44.0759 49.4538 43.9981C49.6095 44.1537 49.6878 44.1537 49.8429 44.1537C49.9991 44.1537 50.1547 43.9981 50.1547 43.8419C50.1547 43.4523 49.3755 42.8287 48.4401 42.8287C46.8806 42.8287 45.5551 44.2315 45.5551 45.7905C45.5551 46.3363 45.7113 46.8042 46.1009 47.1938C46.7245 46.882 47.1924 46.8042 47.582 46.8042C48.2834 46.8042 48.6736 47.116 48.6736 47.4278C48.6736 47.8952 48.2834 48.1292 47.6598 48.1292C47.1146 48.1292 46.491 47.8952 46.0231 47.5056C44.8537 48.1292 44.2301 49.2202 44.2301 50.4674C44.2301 52.4938 45.9452 53.9755 48.4396 53.9755C51.1674 53.9755 52.9608 52.416 52.9608 50.4674C52.9608 49.2202 52.1033 48.441 50.9339 48.441C49.9207 48.441 49.2188 49.0646 49.2188 49.6882C49.2188 50.0773 49.6089 50.3896 49.9213 50.3896C50.233 50.3896 50.3887 50.2345 50.3887 50.0773C50.3887 49.9221 50.233 49.8438 50.1547 49.8438H49.9991V49.766C49.9991 49.6104 50.233 49.4537 50.3887 49.4537C50.7005 49.4537 50.8561 49.6877 50.8561 49.9221C50.8561 50.3891 50.466 50.7014 49.9991 50.7014C49.3755 50.7014 48.9075 50.1561 48.9075 49.298C48.9075 47.7391 50.1547 47.1155 52.4934 46.8815C54.5982 46.5697 55.6892 46.1018 55.6892 44.8546C55.6892 43.9975 55.0656 43.3734 54.1302 43.3734C53.2732 43.3734 52.7269 43.9197 52.7269 44.3088C52.7269 44.5428 52.883 44.699 53.0397 44.699C53.1953 44.699 53.2732 44.6211 53.3515 44.465C53.4293 44.5428 53.4293 44.699 53.4293 44.699C53.4293 44.9329 53.1953 45.0886 52.9619 45.0886C52.6496 45.0886 52.4156 44.9329 52.4156 44.465C52.4156 43.7636 53.1175 43.14 54.1307 43.14C55.2223 43.14 55.9237 43.8419 55.9237 44.8546C55.9237 45.4782 55.6897 46.0239 55.0661 46.5697C54.1307 47.2716 52.9619 47.4273 51.4802 47.5834C50.0774 47.7391 49.376 47.973 49.142 49.0641C49.5316 48.4405 50.1552 48.207 50.935 48.207C52.1821 48.207 53.2737 49.1424 53.2737 50.4674C53.2737 52.4938 51.2473 54.2094 48.4411 54.2094C45.401 54.2094 43.5303 52.7283 43.5303 50.7014C43.5303 49.3759 44.3095 48.207 45.7906 47.2722C45.3227 46.7259 45.0892 46.1806 45.0892 45.4787V45.4787ZM47.7392 47.8952C48.2072 47.8952 48.3633 47.6612 48.3633 47.4278C48.3633 47.2722 48.1294 47.0377 47.5836 47.0377C47.194 47.0377 46.8038 47.116 46.2586 47.3495C46.726 47.6612 47.194 47.8952 47.7392 47.8952V47.8952Z" fill="black" stroke="black" stroke-width="5.84936" stroke-miterlimit="2.613"/>
<path fill-rule="evenodd" clip-rule="evenodd" d="M69.7213 54.1317V50.1567C68.2407 50.6236 65.3562 48.9873 63.2515 49.1425C59.8996 49.1425 51.2472 50.3896 50.9355 62.3156C51.0133 71.9822 60.835 78.9968 69.8769 72.9176L70.501 68.7865C66.4477 73.5417 55.3005 75.3341 53.9756 62.6279C53.975 54.5986 59.6656 48.7528 69.7213 54.1317V54.1317ZM40.1784 54.5986L43.3741 63.7967H36.4369L40.1784 54.5986ZM40.6458 48.8312L30.3567 70.6567C29.8109 72.1378 29.2651 73.2283 28.252 73.8524H33.5529C33.085 70.6567 35.0336 66.9925 35.6571 66.5256H44.4656C46.1024 66.5256 47.5057 73.6963 46.726 74.0864H51.8708C50.3902 72.6053 50.2346 71.2014 49.7661 70.8123L40.6458 48.8312Z" fill="black"/>
</svg>
