<svg width="100" height="100" viewBox="0 0 100 100" fill="none" xmlns="http://www.w3.org/2000/svg">
<path fill-rule="evenodd" clip-rule="evenodd" d="M19.4555 41.73H14.0046V52.8052C14.0046 52.8052 13.9533 54.237 13.1927 54.5691C12.4322 54.9011 11.7225 54.5691 11.4428 53.8791C11.1637 53.187 11.1637 51.1414 11.1637 51.1414H6.29489C6.29489 51.1414 5.66975 55.2015 8.22168 57.3809C10.0483 58.9435 13.448 59.0234 15.4744 58.4055C18.2919 57.5464 19.0249 55.4131 19.4052 52.7777L19.4555 41.73ZM25.4154 41.73H30.9192L36.8023 58.3033H31.4002L28.0529 46.921L24.7306 58.3033H19.4052L25.4154 41.73Z" fill="#000301"/>
<path fill-rule="evenodd" clip-rule="evenodd" d="M24.6301 56.1295H31.4263V52.651H24.6301V56.1295ZM39.8198 41.7299H34.621L38.679 58.3032H44.0044L45.9312 48.8135L47.9093 58.3032H53.2347L57.3425 41.7299H52.1193L50.192 51.7291L48.1879 41.7299H43.7258L41.7217 51.7556L39.8198 41.7299V41.7299ZM92.211 48.1235H87.1409C87.1409 48.1235 86.9878 46.5371 85.8978 45.8455C84.8073 45.1571 83.1337 45.2323 82.3472 46.1028C81.5608 46.9728 81.2054 47.944 81.1042 50.0934C81.0041 52.2422 81.637 53.7508 82.6767 54.3397C83.7153 54.9275 85.3396 54.902 86.0509 54.212C86.759 53.52 87.0641 52.7522 87.1642 51.9351H92.2883C92.2883 51.9351 92.5405 53.6362 90.6386 56.2068C88.3497 59.3035 83.0564 59.0601 80.9527 58.2264C77.7751 56.9668 76.3355 54.8896 75.8805 52.2157C75.1703 48.0467 76.668 45.0289 77.9863 43.7237C79.4565 42.2659 81.486 41.3445 84.0971 41.3445C86.7092 41.3445 89.1937 42.0879 90.6904 44.0318C92.0959 45.8574 92.0834 46.8442 92.211 48.1235V48.1235ZM92.5353 56.3142H94.6073V56.0263H92.5353V56.3142Z" fill="#000301"/>
<path fill-rule="evenodd" clip-rule="evenodd" d="M93.3896 58.5787H93.7512V56.2186H93.3896V58.5787ZM94.9496 56.0474H95.2935V58.616H94.9496V56.0474Z" fill="#000301"/>
<path fill-rule="evenodd" clip-rule="evenodd" d="M95.4257 56.0474L96.3581 58.616H96.0146L95.0823 56.0474H95.4257Z" fill="#000301"/>
<path fill-rule="evenodd" clip-rule="evenodd" d="M96.9662 56.0474L96.0339 58.616H96.3763L97.3075 56.0474H96.9662Z" fill="#000301"/>
<path fill-rule="evenodd" clip-rule="evenodd" d="M97.0615 56.0474H97.404V58.616H97.0615V56.0474Z" fill="#000301"/>
<path fill-rule="evenodd" clip-rule="evenodd" d="M65.784 58.9605C70.6922 58.9605 74.6692 54.9492 74.6692 49.9989C74.6692 45.0507 70.6922 41.0394 65.784 41.0394C60.8779 41.0394 56.9009 45.0507 56.9009 49.9989C56.9009 54.9492 60.8779 58.9605 65.784 58.9605V58.9605Z" fill="#000301" stroke="white" stroke-width="3.85202" stroke-miterlimit="2.613"/>
<path fill-rule="evenodd" clip-rule="evenodd" d="M68.311 41.4114C68.3686 41.4286 68.4267 41.4436 68.4723 41.4592C68.4194 41.442 68.3634 41.427 68.311 41.4114ZM62.8689 41.5432C62.9431 41.5193 63.9807 41.1837 65.1152 41.0742C64.349 41.1307 63.5937 41.2884 62.8689 41.5432V41.5432ZM66.5347 41.0773C66.6483 41.0877 66.7634 41.0976 66.8739 41.1131C66.7608 41.0996 66.6483 41.0856 66.5347 41.0773ZM73.5616 45.6691C73.5788 45.7018 73.5969 45.7329 73.6161 45.7666C73.597 45.7346 73.5789 45.7021 73.5616 45.6691Z" fill="#000301"/>
<path fill-rule="evenodd" clip-rule="evenodd" d="M73.6999 51.0786C73.6999 51.0786 73.1427 48.7897 72.0766 48.0296C72.0766 48.0296 72.4392 46.2771 71.66 44.6144L72.8983 44.6466C71.8529 43.2321 70.4114 42.1593 68.7563 41.5639L69.1584 42.7561C67.3519 42.4993 65.8013 43.3709 65.8013 43.3709C64.1728 42.5247 62.4696 42.7561 62.4696 42.7561L62.8494 41.5499C61.1062 42.1708 59.5982 43.3165 58.5329 44.8295C57.4676 46.3426 56.8973 48.1485 56.9004 49.999C56.9004 54.9493 60.8774 58.9605 65.7836 58.9605C70.5741 58.9605 74.4682 55.1345 74.6518 50.3486L73.6999 51.0786V51.0786ZM56.9627 50.3299C56.9627 50.3299 56.9305 48.7082 57.3455 47.3614C57.8166 45.8419 58.7182 44.6481 58.7182 44.6481L59.9799 44.6144C59.1986 46.2771 59.5633 48.0296 59.5633 48.0296C58.4972 48.7902 57.9401 51.0786 57.9401 51.0786L56.9627 50.3299ZM63.5445 58.5715C63.5445 58.5715 61.9934 58.1419 60.8292 57.3575C59.5182 56.475 58.6383 55.2642 58.6383 55.2642L58.9647 54.0331C60.3244 55.259 62.0935 55.4032 62.0935 55.4032C62.9822 57.0182 64.5256 57.7824 64.5256 57.7824L63.5445 58.5715V58.5715ZM63.8667 52.5805C62.8494 50.7839 62.6984 49.0402 62.6984 49.0402C64.0976 47.5264 65.7759 46.757 65.7759 46.757C68.293 47.8086 68.9036 49.0402 68.9036 49.0402C68.4212 51.7343 67.7841 52.5805 67.7841 52.5805C66.4368 52.6837 63.8667 52.5805 63.8667 52.5805V52.5805ZM70.7308 57.358C69.5698 58.1424 68.0176 58.572 68.0176 58.572L67.0355 57.7829C67.0355 57.7829 68.5799 57.0187 69.4676 55.4037C69.4676 55.4037 71.2377 55.26 72.5974 54.0336L72.9237 55.2647C72.9232 55.2642 72.0418 56.475 70.7308 57.358V57.358Z" fill="white" stroke="#000301" stroke-width="2.73662" stroke-miterlimit="2.613"/>
<path fill-rule="evenodd" clip-rule="evenodd" d="M74.6025 48.9401C74.6145 49.0501 74.6228 49.1564 74.6321 49.2586C74.6228 49.1533 74.6145 49.0469 74.6025 48.9401Z" fill="#000301"/>
</svg>
