<svg width="100" height="100" viewBox="0 0 100 100" fill="none" xmlns="http://www.w3.org/2000/svg">
<path fill-rule="evenodd" clip-rule="evenodd" d="M39.3391 25.3979C38.0406 25.6848 36.5558 25.8705 35.8476 27.1695C35.6453 27.6079 35.6624 28.1983 35.9488 28.6035C36.6741 29.5145 37.7703 29.75 38.8162 30.0203C41.2285 30.7118 43.877 30.8638 45.9516 32.3989C46.7106 33.0059 47.1153 33.8323 46.9638 34.8108C46.6603 36.5482 44.7703 37.274 43.3203 37.6786C39.9637 38.4885 36.1008 38.0833 32.7946 39.0109C31.6984 39.3315 30.5176 39.551 29.7415 40.5294C29.5895 40.7654 29.5386 41.1198 29.6906 41.3724C30.9222 39.7362 32.9632 39.6516 34.92 39.5676C39.5757 39.5172 44.9903 40.5626 48.7686 37.9655C49.6122 37.3243 50.3037 36.4138 49.9665 35.3508L49.9157 35.1485C51.1478 35.7389 52.2772 37.0042 52.2093 38.4548C52.2435 39.8887 51.2313 41.1706 49.966 41.8118C48.212 42.7228 46.1031 42.8743 43.9444 42.7228L36.0334 42.3011C34.8018 42.4193 33.5369 42.5879 32.778 43.667C32.407 44.2911 32.5756 45.2021 32.9803 45.7588C34.2788 47.4454 37.1633 48.5587 36.5055 51.0727C36.4043 51.3757 36.2523 51.6797 36.0837 51.9837C36.0162 50.3978 34.3971 49.284 33.0643 48.8461C29.9775 47.7494 26.4181 47.8173 23.8708 45.3879C23.0952 44.578 22.7409 43.4481 23.0952 42.3182C23.6348 40.6145 25.4905 39.5686 26.9576 38.8771C28.5602 37.9827 30.4999 37.9323 32.0013 36.8019C32.3385 36.4984 32.5922 36.127 32.4568 35.672C32.0013 34.8284 31.0229 34.7273 30.1799 34.5753C27.8354 34.2043 25.2373 34.4066 23.2473 33.1584C22.6231 32.7195 22.37 32.0451 22.4883 31.3198C22.9946 29.5316 24.951 29.0424 26.4352 28.5365C25.6425 29.2452 24.7652 30.0716 25.103 31.1844C25.4402 31.9943 26.3009 32.2812 27.0427 32.5172C29.1345 33.1076 31.4623 33.1242 33.4358 34.0186C34.1102 34.3055 34.8189 34.9628 34.9372 35.7223C34.9709 35.908 34.9709 36.1441 34.9372 36.3464C35.7636 36.2115 36.7758 35.9755 37.0964 35.0479C37.1809 34.6261 37.0632 34.2214 36.742 33.9174C35.7636 33.1413 34.4479 33.1413 33.2335 32.939C31.6309 32.6184 29.978 32.4161 28.679 31.3873C28.1389 30.9318 27.9029 30.3243 28.0212 29.6327C28.4767 27.7438 30.5347 26.7654 32.1373 26.175C34.3629 25.4819 36.809 25.2293 39.3391 25.3979V25.3979ZM58.4176 67.0618L58.4846 66.9269L62.9207 55.1364L58.3325 55.1193L59.8516 51.1381H70.6471L65.4348 64.734L70.5459 64.7511L68.9429 68.8662L51.8726 68.8833L50.3546 64.0259L45.699 64.0088C45.176 65.6108 44.7542 67.2642 44.2821 68.8662H40.0815L46.4745 46.9551H52.6824L58.4176 67.0618V67.0618ZM9.09464 64.734L14.1212 64.7511C13.6325 66.1 13.0924 67.5002 12.5695 68.8662L1.95972 68.8833L6.42962 51.1381H12.4683L9.09464 64.734ZM30.1461 68.8833H23.9891C23.6192 67.7675 23.2593 66.6485 22.9095 65.5262L18.4059 65.5101C18.035 66.6229 17.6972 67.7695 17.3429 68.8833H13.5142L19.4518 51.1381H23.8205L30.1461 68.8833Z" fill="black"/>
<path fill-rule="evenodd" clip-rule="evenodd" d="M36.1681 60.6518C36.1681 60.6689 36.1847 60.685 36.1847 60.685L39.0017 51.1714V51.1382H42.9487L37.7369 68.8502V68.8834H32.8452L26.6716 51.1382H33.183L36.1681 60.6518ZM77.4783 64.7341L82.7586 64.7512C82.2517 66.1504 81.6115 67.5003 81.0876 68.8663L69.6851 68.8834L75.1505 55.1365L70.3932 55.1194L71.9112 51.1382H82.7581L77.4783 64.7341V64.7341ZM98.5298 68.8502V68.8834H92.3723L91.2756 65.712L86.7891 65.696L85.7608 68.8834H81.8979L87.8521 51.1382H92.2042L98.5298 68.8502V68.8502Z" fill="black"/>
<path fill-rule="evenodd" clip-rule="evenodd" d="M46.7783 59.7916L48.3637 54.5632L49.4433 59.7916H46.7783ZM21.5775 61.5627H19.5532L20.6328 58.1553C20.9534 59.2858 21.2735 60.4328 21.5775 61.5627ZM89.9604 61.7479H87.936L89.0162 58.3239C89.3191 59.4715 89.6564 60.6009 89.9604 61.7479Z" fill="white"/>
<path fill-rule="evenodd" clip-rule="evenodd" d="M98.5297 74.6519L1.47021 74.6441V71.7684H98.5297V74.6519Z" fill="black"/>
</svg>
