<svg width="100" height="100" viewBox="0 0 100 100" fill="none" xmlns="http://www.w3.org/2000/svg">
<path d="M34.2213 51.2618V50.3983L33.4724 50.8281L1.9707 68.9092V32.2885L34.1417 13.7398V31.1135V31.9789L34.8914 31.5467L65.7785 13.7398V31.4201V32.2836L66.5274 31.8538L98.0297 13.7721V50.3929L65.8582 68.9421V51.5679V50.7025L65.1085 51.1347L34.2213 68.9421V51.2618Z" stroke="black"/>
<path fill-rule="evenodd" clip-rule="evenodd" d="M5.52768 85.6596L8.3914 77.1025H9.44818L6.0392 86.8866H5.01615L1.60718 77.1025H2.66395L5.52768 85.6596ZM11.6982 81.9435C11.5617 87.671 18.789 87.8075 18.789 81.8755C18.789 76.5915 12.0053 76.1479 11.6982 81.9435ZM10.6414 81.9435C10.6414 75.1934 19.8121 75.0912 19.8121 81.8755C19.8121 88.7621 10.6414 88.9665 10.6414 81.9435ZM22.7095 82.2843V85.9668H28.3347V86.8866H21.7892V77.1025H28.2325V78.0571H22.7095V81.4324H27.721V82.2848H22.7095V82.2843ZM35.699 79.8641C35.699 78.2615 33.9942 77.2047 32.1193 77.9544C30.9261 78.3637 30.6195 80.068 31.6763 80.7845C32.8353 81.6368 35.9034 81.4319 36.6193 83.2384C38.5627 87.6705 29.7671 88.8295 29.9031 83.8526H30.8239C30.9261 86.1706 33.1419 86.6137 34.54 86.1706C35.4946 85.9662 36.1078 84.9437 35.9034 83.9548C35.5625 82.7279 34.3351 82.5914 33.1419 82.2843C31.3349 81.8755 29.9031 81.0911 30.1075 79.2161C30.2781 77.4434 31.778 76.8639 33.5507 76.8639C36.2095 77.0003 36.6188 78.8753 36.6188 79.8641H35.699V79.8641ZM41.5623 78.0571H38.4942V77.1025H45.6873V78.0571H42.5512V86.8871H41.5623V78.0571V78.0571ZM45.5851 82.7964H48.994V83.7162H45.5851V82.7964ZM53.0167 83.0003H56.6991L54.8242 78.1593L53.0167 83.0003ZM57.0399 83.8532H52.6764L51.5174 86.8871H50.4606L54.3132 77.1031H55.4379L59.2562 86.8871H58.1994L57.0399 83.8532ZM61.6764 85.9668H66.8581V86.8866H60.756V77.2047H61.6759V85.9668H61.6764V85.9668ZM69.6538 82.5914V86.8866H68.597V77.1025H72.3131C73.8809 77.1025 75.3475 77.8522 75.3475 79.6597C75.484 82.0799 73.7798 82.5914 72.1087 82.5914H69.6538ZM69.6538 77.9549V81.7396H72.1082C74.324 81.7396 74.3924 80.7165 74.3924 79.8646C74.3924 78.3643 73.2335 77.9549 71.563 77.9549H69.6538V77.9549ZM77.5285 77.2047H78.5858V86.8866H77.5285V77.2047ZM88.0294 85.5237V77.2053H89.0177V86.8871H87.9267L82.3357 78.5007V86.8871H81.4158V77.2053H82.4384L88.0294 85.5237ZM92.5973 82.2843V85.9668H98.1883V86.8866H91.6765V77.1025H98.1199V78.0571H92.5968V81.4324H97.5746V82.2848H92.5973V82.2843V82.2843Z" fill="black"/>
</svg>
